HIERARCHY
ROOT Hips
{
    OFFSET 0.000000 0.000000 0.000000
    CHANNELS 6 Xposition Yposition Zposition Zrotation Xrotation Yrotation
    JOINT Spine
    {
        OFFSET -0.000000 14.517291 0.000000
        CHANNELS 3 Zrotation Xrotation Yrotation
        JOINT Spine1
        {
            OFFSET -0.000000 37.558300 0.000000
            CHANNELS 3 Zrotation Xrotation Yrotation
            JOINT Neck
            {
                OFFSET -0.000000 37.404057 3.400369
                CHANNELS 3 Zrotation Xrotation Yrotation
                JOINT Head
                {
                    OFFSET -0.000000 24.785618 -3.540803
                    CHANNELS 3 Zrotation Xrotation Yrotation
                    End Site
                    {
                        OFFSET -0.000000 35.408028 0.000000
                    }
                }
            }
            JOINT LeftShoulder
            {
                OFFSET 6.992933 33.973492 -0.192664
                CHANNELS 3 Zrotation Xrotation Yrotation
                JOINT LeftArm
                {
                    OFFSET 21.527611 0.000000 0.000000
                    CHANNELS 3 Zrotation Xrotation Yrotation
                    JOINT LeftForeArm
                    {
                        OFFSET 56.353916 0.000000 0.000000
                        CHANNELS 3 Zrotation Xrotation Yrotation
                        JOINT LeftHand
                        {
                            OFFSET 47.774071 0.000000 0.000000
                            CHANNELS 3 Zrotation Xrotation Yrotation
                            End Site
                            {
                                OFFSET 26.556021 0.000000 0.000000
                            }
                        }
                    }
                }
            }
            JOINT RightShoulder
            {
                OFFSET -7.065357 33.973492 -0.192664
                CHANNELS 3 Zrotation Xrotation Yrotation
                JOINT RightArm
                {
                    OFFSET -21.527611 0.000000 0.000000
                    CHANNELS 3 Zrotation Xrotation Yrotation
                    JOINT RightForeArm
                    {
                        OFFSET -56.353916 0.000000 0.000000
                        CHANNELS 3 Zrotation Xrotation Yrotation
                        JOINT RightHand
                        {
                            OFFSET -47.774071 0.000000 0.000000
                            CHANNELS 3 Zrotation Xrotation Yrotation
                            End Site
                            {
                                OFFSET -26.556021 0.000000 0.000000
                            }
                        }
                    }
                }
            }
        }
    }
    JOINT LeftUpLeg
    {
        OFFSET 17.704014 0.000000 0.000000
        CHANNELS 3 Zrotation Xrotation Yrotation
        JOINT LeftLeg
        {
            OFFSET -0.000000 -81.181816 0.000000
            CHANNELS 3 Zrotation Xrotation Yrotation
            JOINT LeftFoot
            {
                OFFSET -0.000000 -62.821102 0.000000
                CHANNELS 3 Zrotation Xrotation Yrotation
                JOINT LeftToeBase
                {
                    OFFSET -0.000000 -11.507608 26.556021
                    CHANNELS 3 Zrotation Xrotation Yrotation
                    End Site
                    {
                        OFFSET -0.000000 0.000000 7.081605
                    }
                }
            }
        }
    }
    JOINT RightUpLeg
    {
        OFFSET -17.704014 0.000000 0.000000
        CHANNELS 3 Zrotation Xrotation Yrotation
        JOINT RightLeg
        {
            OFFSET -0.000000 -81.181816 0.000000
            CHANNELS 3 Zrotation Xrotation Yrotation
            JOINT RightFoot
            {
                OFFSET -0.000000 -62.821102 0.000000
                CHANNELS 3 Zrotation Xrotation Yrotation
                JOINT RightToeBase
                {
                    OFFSET -0.000000 -11.507608 26.556021
                    CHANNELS 3 Zrotation Xrotation Yrotation
                    End Site
                    {
                        OFFSET -0.000000 0.000000 7.081605
                    }
                }
            }
        }
    }
}
MOTION
Frames:    5
Frame Time:    0.008333
5.373168    150.023895    -24.715239    0.212228    1.418106    1.033474    4.682143    -1.972648    7.928704    -5.603241    -1.140277    2.560440    5.719750    -4.350151    -5.612731    3.019213    9.854715    -6.746025    2.464684    3.419169    -7.720396    -46.743839    15.324262    -34.522724    -5.469453    -19.614994    -125.713890    -1.115730    -29.326885    -1.951971    -16.079794    -0.088750    3.656788    30.607573    -18.654337    76.158356    5.080365    -14.067505    21.367502    11.180099    -10.706239    42.830917    6.910742    -35.420071    -14.031670    -11.634542    18.908937    -15.710978    -8.492828    9.591393    35.481403    0.000000    0.000000    0.000000    -0.138487    8.351421    -1.830432    1.801183    29.985233    0.412610    0.552902    -35.671604    -4.569362    0.000000    0.000000    0.000000    
5.407037    149.994934    -24.641169    0.233906    1.351745    1.106068    4.691006    -1.976640    7.921732    -5.600249    -1.126533    2.558708    5.714246    -4.317237    -5.629715    3.021848    9.892378    -6.761884    2.474087    3.424050    -7.741773    -46.643803    15.311892    -34.720116    -5.421790    -19.722450    -125.674095    -1.071477    -29.338099    -1.853958    -16.078169    -0.092377    3.655549    30.590921    -18.677343    76.126450    5.073438    -14.080603    21.348236    11.160583    -10.723582    42.843010    6.813176    -35.420811    -14.185630    -11.690982    19.047480    -15.690309    -8.451492    9.502355    35.517792    0.000000    0.000000    0.000000    -0.166533    8.454632    -1.958088    1.775848    29.995508    0.364560    0.672467    -35.705662    -4.424109    0.000000    0.000000    0.000000    
5.443293    149.963898    -24.571121    0.253924    1.282676    1.170041    4.701239    -1.974681    7.927938    -5.598433    -1.108193    2.561660    5.707147    -4.297616    -5.645302    3.031921    9.925879    -6.776151    2.479893    3.431396    -7.757014    -46.589745    15.308759    -34.806419    -5.400029    -19.773376    -125.667465    -1.056420    -29.346880    -1.844759    -16.072783    -0.081033    3.645686    30.593700    -18.728439    76.109856    5.081437    -14.065663    21.313662    11.158833    -10.704479    42.883907    6.725152    -35.412682    -14.266318    -11.732302    19.185326    -15.665003    -8.391667    9.429012    35.501099    0.000000    0.000000    0.000000    -0.189979    8.539883    -2.067367    1.758661    30.043932    0.369924    0.695204    -35.733131    -4.399926    0.000000    0.000000    0.000000    
5.473646    149.931473    -24.509361    0.272476    1.222051    1.220647    4.705035    -1.965686    7.945251    -5.596152    -1.097360    2.568082    5.696403    -4.275401    -5.665280    3.051421    9.924663    -6.792727    2.493454    3.417489    -7.770489    -46.551723    15.323729    -34.867561    -5.374790    -19.830368    -125.662018    -1.120045    -29.353991    -1.871751    -16.070122    -0.086699    3.630087    30.574213    -18.745163    76.072380    5.072582    -14.114504    21.300564    11.202177    -10.737236    42.862297    6.662225    -35.408333    -14.297707    -11.766958    19.322546    -15.650113    -8.359402    9.339311    35.456020    0.000000    0.000000    0.000000    -0.212106    8.602494    -2.110857    1.775312    30.114363    0.452039    0.642058    -35.780201    -4.545826    0.000000    0.000000    0.000000    
5.502373    149.898865    -24.454899    0.287378    1.168427    1.263332    4.717734    -1.951868    7.960945    -5.610507    -1.095316    2.573402    5.699658    -4.252406    -5.683213    3.071653    9.914736    -6.809452    2.510622    3.402316    -7.768062    -46.516510    15.344873    -34.922134    -5.361347    -19.872211    -125.653297    -1.193298    -29.366291    -1.946231    -16.070410    -0.079664    3.625138    30.596054    -18.790836    76.054886    5.083621    -14.131387    21.269798    11.202991    -10.758176    42.831318    6.621591    -35.407017    -14.306717    -11.813568    19.443964    -15.628293    -8.334523    9.256218    35.415436    0.000000    0.000000    0.000000    -0.224501    8.665284    -2.105348    1.823405    30.160004    0.472636    0.532016    -35.823910    -4.735403    0.000000    0.000000    0.000000    
